<?xml version="1.0" standalone="no"?>
<!DOCTYPE svg PUBLIC "-//W3C//DTD SVG 20010904//EN"
 "http://www.w3.org/TR/2001/REC-SVG-20010904/DTD/svg10.dtd">
<svg version="1.0" xmlns="http://www.w3.org/2000/svg"
 width="808.000000pt" height="752.000000pt" viewBox="0 0 808.000000 752.000000"
 preserveAspectRatio="xMidYMid meet">

<g transform="translate(0.000000,752.000000) scale(0.100000,-0.100000)"
fill="#000000" stroke="none">
<path d="M3235 7338 c-11 -6 -31 -21 -43 -35 -13 -13 -29 -22 -35 -20 -21 7
-18 33 5 46 13 6 16 10 7 7 -32 -8 -119 -81 -119 -100 0 -12 -5 -16 -14 -13
-9 4 -17 -2 -21 -14 -4 -10 -10 -17 -15 -14 -5 3 -18 -10 -29 -29 -39 -63 -93
-83 -126 -46 -21 23 -38 25 -54 6 -14 -17 -4 -46 16 -46 19 0 13 -40 -8 -53
-12 -7 -28 -4 -61 11 -68 33 -153 24 -166 -18 -5 -13 -3 -13 14 0 18 14 18 14
5 -2 -7 -10 -17 -15 -22 -12 -13 8 -40 -62 -32 -83 4 -10 13 -23 21 -29 9 -7
13 -21 10 -37 -6 -30 1 -34 22 -14 7 6 -2 -7 -21 -31 -19 -23 -44 -45 -56 -48
-13 -3 -23 -10 -23 -15 0 -6 -19 -18 -43 -28 -24 -10 -57 -31 -73 -45 -91 -81
-144 -137 -144 -150 0 -9 -13 -35 -29 -58 -16 -24 -27 -46 -25 -50 3 -5 1 -8
-5 -8 -14 0 -35 -43 -51 -105 -8 -27 -16 -52 -20 -55 -20 -17 -47 -103 -81
-265 -11 -50 -7 -291 7 -482 l7 -92 -80 -93 c-44 -51 -87 -107 -96 -125 -9
-17 -22 -37 -30 -45 -7 -7 -35 -40 -61 -73 -27 -33 -64 -75 -82 -94 -19 -19
-34 -40 -34 -46 0 -6 -11 -22 -25 -35 -14 -13 -25 -33 -25 -44 0 -12 -11 -68
-25 -126 -52 -214 -70 -367 -70 -605 0 -121 2 -269 4 -330 6 -146 -6 -293 -35
-445 -24 -119 -58 -234 -76 -255 -4 -5 -8 -25 -8 -45 0 -40 -15 -101 -35 -146
-11 -24 -13 -67 -9 -195 8 -273 2 -546 -14 -597 -6 -18 -29 -55 -52 -82 -34
-41 -52 -52 -108 -70 -122 -39 -152 -53 -152 -66 0 -8 -4 -14 -9 -14 -5 0 -11
-12 -13 -27 -2 -20 -9 -29 -25 -31 -26 -4 -45 -31 -61 -89 -8 -26 -19 -43 -28
-43 -8 0 -30 -10 -49 -23 -25 -16 -35 -29 -35 -49 0 -37 -19 -76 -40 -83 -14
-4 -18 -17 -18 -55 0 -55 16 -79 67 -100 31 -12 42 -42 21 -55 -5 -3 -10 -16
-10 -28 0 -12 -9 -35 -20 -52 -14 -22 -20 -47 -20 -91 0 -46 -4 -65 -18 -77
-10 -10 -21 -15 -24 -12 -3 3 -11 -2 -18 -11 -11 -12 -11 -22 -2 -47 11 -29
10 -34 -13 -52 -14 -12 -25 -26 -25 -31 0 -6 -9 -19 -20 -29 -13 -12 -20 -31
-20 -56 0 -26 -7 -45 -21 -58 -13 -12 -19 -26 -15 -36 3 -9 -2 -28 -11 -42
-16 -24 -16 -26 1 -39 15 -11 17 -21 11 -59 -3 -26 -15 -55 -26 -66 -13 -13
-17 -27 -13 -47 3 -16 -3 -54 -14 -87 -36 -111 -35 -206 3 -244 15 -15 16 -14
10 10 -6 24 -3 27 29 33 49 9 59 1 51 -40 -5 -30 -2 -38 27 -64 24 -22 32 -38
30 -55 l-3 -25 484 0 485 0 26 46 c14 26 26 54 26 64 0 10 7 23 16 31 9 7 14
22 11 36 -3 16 3 29 19 42 34 27 43 58 29 99 -7 19 -17 37 -22 41 -19 12 -31
87 -17 112 7 14 9 30 4 39 -4 8 -9 20 -9 25 -3 16 -35 55 -46 55 -15 0 -75 57
-75 71 0 7 7 20 16 30 15 16 19 17 44 4 25 -13 29 -12 49 10 11 14 21 27 20
30 0 3 1 9 4 13 2 4 2 2 1 -5 -2 -9 7 -11 29 -7 67 12 70 17 32 62 -17 21 -21
32 -13 40 7 7 3 24 -16 58 -35 63 -34 89 7 114 29 18 32 25 32 67 0 42 2 48
20 46 11 -1 14 0 8 3 -9 4 -8 12 4 31 16 23 16 26 0 35 -24 13 -23 68 2 75 25
6 38 43 44 118 3 33 6 65 7 70 6 24 -1 46 -20 62 -22 19 -27 72 -9 90 19 19 0
71 -31 90 -16 9 -32 28 -35 42 -8 31 -33 61 -51 61 -7 0 -16 9 -19 20 -3 11
-10 20 -15 20 -4 0 -10 9 -13 19 -3 11 -22 28 -43 38 -33 15 -41 26 -53 68
-16 56 -15 163 1 203 6 15 12 52 14 82 7 109 11 137 34 201 29 84 49 166 50
206 0 17 5 35 10 38 6 3 10 16 10 29 0 12 16 66 35 120 19 54 37 109 39 122 3
13 14 37 26 54 11 16 25 53 30 82 11 66 65 242 129 421 23 66 102 208 213 384
43 69 68 68 81 -2 9 -50 28 -117 48 -169 11 -27 19 -65 19 -85 0 -21 4 -41 9
-46 13 -13 61 -143 61 -164 0 -9 12 -41 26 -71 14 -30 30 -82 36 -115 5 -33
13 -80 17 -105 4 -25 13 -55 19 -67 7 -12 12 -48 12 -81 0 -33 7 -77 16 -98
11 -25 18 -76 20 -139 1 -55 6 -147 10 -205 4 -58 7 -132 6 -165 -1 -33 3 -91
9 -128 9 -56 8 -71 -3 -85 -10 -12 -15 -47 -17 -109 -2 -86 -5 -99 -42 -172
-23 -46 -39 -93 -39 -113 0 -37 -36 -80 -77 -93 -14 -4 -23 -14 -23 -26 0 -13
-7 -19 -21 -19 -33 0 -93 -40 -80 -53 16 -16 13 -49 -7 -75 -17 -22 -102 -52
-148 -52 -19 0 -22 -6 -23 -53 0 -34 -6 -56 -16 -63 -8 -6 -15 -20 -15 -31 0
-11 -7 -26 -15 -33 -8 -7 -15 -19 -15 -28 0 -63 -51 -110 -87 -81 -15 13 -16
11 -9 -11 10 -32 10 -58 1 -89 -6 -17 -5 -22 3 -17 11 6 16 -5 13 -26 0 -4 13
-15 29 -23 30 -16 37 -38 20 -65 -7 -11 -2 -22 15 -40 l25 -26 -20 -39 c-36
-71 -33 -126 9 -140 25 -8 27 -37 5 -56 -8 -7 -22 -26 -30 -41 -12 -23 -13
-32 -3 -44 16 -20 14 -67 -6 -97 -20 -31 -27 -65 -14 -72 5 -4 7 -11 4 -16 -4
-5 -1 -9 5 -9 19 0 33 -45 21 -69 -9 -16 -8 -26 4 -45 14 -21 14 -29 4 -48 -7
-13 -21 -52 -30 -88 l-18 -65 32 -27 32 -27 554 2 554 2 23 80 c17 57 21 86
14 100 -5 11 -10 29 -12 40 -2 12 -12 21 -25 23 -27 4 -38 34 -23 62 15 28 3
46 -66 95 -56 39 -59 44 -56 78 2 20 -2 37 -7 37 -23 0 -21 41 5 92 15 29 27
63 25 76 -2 18 2 22 27 22 21 0 32 7 41 26 6 14 9 29 6 34 -7 11 -45 0 -45
-13 0 -6 -7 -1 -16 11 -9 13 -18 49 -21 82 -5 53 -4 58 16 65 15 4 29 1 40
-10 17 -15 19 -15 25 0 12 32 6 98 -10 116 -12 13 -15 28 -10 52 6 30 10 34
31 29 20 -3 27 1 36 24 18 49 20 71 4 84 -8 7 -15 25 -15 40 0 16 -7 30 -15
34 -8 3 -15 15 -15 27 0 18 5 21 29 17 l29 -4 -13 35 c-7 20 -24 61 -38 92
-23 52 -28 57 -71 68 -42 10 -51 18 -86 73 -22 34 -40 65 -40 69 0 4 -20 17
-44 29 -40 19 -47 27 -60 75 -22 74 -21 83 19 150 20 32 40 77 45 99 13 57 65
198 93 254 13 26 24 62 25 79 0 18 8 61 17 95 9 35 18 95 21 133 2 39 7 82 9
95 3 14 7 66 10 115 8 145 15 217 27 265 6 25 10 63 9 85 0 22 7 87 18 145 16
91 17 109 5 139 -20 49 -11 193 16 238 11 19 20 49 20 66 0 83 26 98 77 45 43
-45 84 -78 97 -78 6 0 32 -17 58 -38 25 -21 77 -59 114 -84 38 -25 96 -63 128
-84 150 -99 276 -152 396 -167 128 -16 379 -15 389 1 5 8 19 12 31 10 23 -3
23 -5 23 -128 0 -69 -3 -147 -7 -175 -4 -27 -12 -108 -16 -180 -13 -185 -24
-256 -53 -319 -14 -30 -23 -56 -21 -59 6 -6 -26 -9 -93 -8 -62 1 -63 1 -77
-34 -8 -19 -22 -35 -30 -35 -8 0 -24 -14 -36 -30 -12 -16 -28 -30 -37 -30 -11
0 -14 -6 -9 -23 3 -12 6 -25 6 -28 0 -3 11 -11 25 -17 37 -17 31 -47 -17 -95
-24 -22 -42 -46 -40 -51 7 -20 -10 -78 -27 -95 -9 -9 -25 -44 -35 -77 -10 -32
-26 -67 -34 -77 -8 -9 -13 -20 -9 -23 3 -3 -1 -29 -10 -56 -9 -30 -12 -65 -8
-85 4 -24 1 -42 -10 -59 -19 -29 -12 -106 11 -125 19 -16 17 -39 -6 -74 -12
-18 -20 -48 -20 -75 -1 -25 -7 -63 -15 -85 -8 -22 -15 -65 -15 -96 0 -39 -6
-64 -18 -80 -33 -43 -33 -67 0 -90 25 -18 29 -27 27 -58 -2 -20 0 -42 5 -49 4
-6 14 -34 22 -62 14 -48 16 -50 52 -51 20 -1 43 -1 51 0 7 2 10 -2 6 -8 -3 -6
0 -11 7 -11 7 0 25 -15 39 -33 62 -77 262 -139 418 -129 62 4 77 2 87 -12 19
-27 121 -6 154 32 88 100 97 119 72 161 -13 24 -14 33 -5 42 10 10 17 3 32
-32 12 -24 21 -60 21 -80 0 -22 8 -45 20 -60 12 -12 30 -38 41 -56 11 -18 24
-33 28 -33 4 0 13 -12 20 -26 18 -41 74 -104 92 -104 9 0 24 -10 32 -23 13
-20 28 -25 109 -34 74 -9 98 -8 119 2 16 9 45 12 85 8 77 -7 227 13 263 35 15
9 42 34 60 54 29 33 32 41 23 66 -9 27 -8 28 18 24 25 -3 29 1 44 40 16 42 16
45 -5 92 -13 30 -19 59 -16 76 3 15 1 32 -4 37 -7 7 -4 15 11 26 26 18 20 52
-10 62 -11 4 -23 18 -26 33 -4 15 -15 36 -25 47 -10 11 -25 37 -34 58 -10 24
-22 37 -35 37 -28 0 -34 17 -10 30 11 6 20 20 20 32 0 11 8 26 17 33 15 11 15
18 4 69 -11 50 -11 60 3 81 19 29 20 45 4 82 -7 15 -12 49 -13 75 0 30 -7 53
-19 66 -13 16 -16 29 -11 52 6 25 3 36 -14 52 -14 12 -20 26 -16 38 4 12 0 22
-11 28 -13 7 -17 28 -19 108 -4 118 -12 164 -32 164 -7 0 -16 8 -19 18 -14 41
-40 82 -52 82 -8 0 -16 9 -19 20 -3 13 -14 20 -29 20 -13 0 -24 5 -24 10 0 6
-6 10 -14 10 -38 0 -45 145 -15 325 6 33 12 78 14 100 5 55 25 164 35 200 5
17 11 50 15 75 3 25 8 63 11 85 3 22 7 83 10 135 9 184 11 215 23 244 16 41
61 225 61 252 0 37 20 115 41 159 10 22 19 51 19 65 1 14 10 61 21 105 11 44
22 89 24 100 2 11 8 33 15 50 26 69 43 180 49 330 8 179 6 175 115 340 25 38
46 73 46 78 0 6 10 -1 23 -15 13 -14 31 -29 40 -34 14 -8 15 -16 7 -42 -5 -18
-6 -41 -3 -50 3 -9 -4 -2 -16 16 -24 37 -41 40 -65 13 -11 -13 -15 -27 -11
-44 5 -17 1 -34 -9 -49 -9 -12 -16 -30 -16 -39 0 -26 35 -51 61 -44 36 9 97
-20 101 -47 2 -19 9 -23 38 -23 33 0 35 2 38 39 2 21 10 49 19 62 9 15 13 34
9 49 -8 30 -43 52 -59 36 -6 -6 -14 -11 -18 -11 -10 0 -18 39 -9 45 14 9 40
66 27 59 -7 -3 3 6 22 22 61 50 81 152 41 204 -21 26 -26 79 -11 96 6 5 23 34
39 64 21 39 40 60 66 73 27 13 36 23 36 43 0 32 21 73 51 99 12 11 19 14 15 7
-17 -28 -17 -114 -1 -138 13 -20 14 -41 9 -113 -4 -59 -3 -90 4 -95 6 -3 8
-21 6 -39 -14 -84 53 -146 205 -191 69 -20 68 -21 107 9 18 14 36 25 40 25 4
0 15 7 24 15 22 20 53 9 45 -15 -9 -27 13 -35 37 -14 19 18 20 18 33 1 15 -20
35 -22 35 -3 0 8 7 16 15 20 8 3 15 13 15 22 0 12 7 15 25 11 21 -4 28 1 39
27 28 68 36 122 26 182 -6 35 -6 62 -1 67 11 11 73 -47 85 -78 8 -20 8 -20 16
1 6 16 15 20 33 17 33 -6 43 22 17 44 -16 14 -20 30 -20 83 0 72 12 95 41 80
21 -12 28 -3 40 48 5 24 4 41 -4 51 -10 12 -9 14 6 8 15 -6 18 -2 17 16 -3 36
-1 49 9 43 5 -3 12 1 15 10 3 9 11 12 18 8 8 -5 7 0 -2 11 -14 17 -13 18 4 12
15 -6 17 -4 11 10 -4 10 -13 33 -20 51 -6 18 -24 45 -38 60 -35 37 -34 52 4
52 35 0 36 23 0 28 -24 4 -56 46 -46 62 7 12 32 13 37 2 2 -5 16 -12 32 -16
l28 -7 -23 29 c-13 16 -40 33 -59 38 -30 8 -35 14 -38 42 -2 24 1 32 12 32 10
0 16 -9 16 -21 0 -15 4 -19 16 -15 9 3 18 6 20 6 2 0 4 15 4 34 0 19 3 37 8
40 4 2 27 -1 50 -7 52 -14 76 1 50 30 -17 20 -13 43 8 43 8 0 14 7 14 15 0 9
9 15 24 15 23 0 23 0 8 46 -8 25 -25 52 -38 61 -34 22 -32 47 4 39 26 -6 26
-6 5 7 -15 8 -19 17 -13 26 10 17 2 43 -17 54 -23 14 3 47 39 47 25 0 28 2 18
14 -6 8 -21 16 -33 18 -12 2 -22 10 -22 18 0 11 10 15 38 14 21 -1 36 3 35 8
-2 5 -6 8 -9 6 -3 -2 -14 5 -24 16 -13 13 -28 17 -51 13 -31 -5 -32 -4 -36 34
-2 22 1 39 7 39 5 0 -9 16 -32 36 -51 42 -58 70 -15 60 15 -4 36 -10 47 -13
17 -5 18 -4 6 11 -15 18 -1 22 17 4 7 -7 12 -8 12 -2 -1 24 -26 39 -122 74
-64 24 -85 50 -38 50 16 0 54 11 84 25 30 14 60 25 65 25 6 0 11 5 11 11 0 6
-7 8 -16 5 -8 -3 -28 3 -43 15 -26 19 -28 20 -58 3 -30 -18 -31 -18 -63 10
-26 21 -39 26 -61 21 -23 -5 -29 -3 -29 10 0 9 9 19 20 22 38 10 10 20 -41 15
-49 -5 -52 -4 -46 17 4 16 1 21 -13 21 -10 0 -20 10 -24 23 l-6 22 -16 -26
c-9 -14 -30 -31 -47 -39 -26 -11 -36 -11 -76 4 -25 10 -61 22 -80 26 -55 14
-64 28 -49 84 l13 48 47 -5 c37 -5 48 -3 48 8 0 27 -49 41 -83 23 -13 -7 -23
-5 -35 6 -12 11 -29 13 -61 9 -31 -4 -45 -2 -52 8 -6 11 -11 11 -21 1 -6 -6
-27 -12 -45 -12 -32 0 -33 1 -33 40 l0 40 -49 -19 c-28 -10 -61 -31 -74 -47
-23 -27 -26 -28 -53 -14 -35 17 -64 19 -84 5 -13 -9 -13 -8 0 9 11 15 12 20 3
23 -7 3 -13 13 -13 24 0 10 -7 19 -15 19 -8 0 -15 -6 -15 -13 0 -8 -6 -15 -12
-16 -13 -2 -81 -9 -105 -10 -7 -1 -27 -20 -45 -44 -20 -27 -39 -42 -48 -39
-47 15 -62 82 -27 120 18 20 19 24 7 32 -24 16 -47 11 -95 -17 -37 -23 -45
-32 -40 -49 5 -22 -19 -53 -32 -41 -3 4 -14 2 -25 -4 -25 -13 -64 -22 -103
-23 -25 -1 -33 5 -44 32 -19 42 -50 40 -64 -3 -13 -40 -14 -40 -34 -24 -9 8
-14 9 -10 3 4 -7 -6 -16 -26 -24 -17 -6 -44 -18 -59 -26 -14 -8 -35 -14 -46
-14 -11 0 -37 -6 -58 -14 -33 -11 -41 -11 -52 0 -7 7 -11 19 -10 26 2 6 -5 14
-15 16 -18 4 -56 -34 -52 -53 1 -5 0 -7 -2 -4 -7 11 -106 1 -114 -13 -12 -18
-11 -28 1 -28 6 0 10 -7 10 -15 0 -8 -3 -15 -7 -15 -5 0 -20 -15 -34 -33 l-27
-33 32 -1 c58 -2 58 -1 46 -23 -7 -13 -21 -20 -38 -20 -16 0 -32 -4 -38 -9 -5
-4 -30 -14 -56 -21 -43 -11 -53 -19 -49 -42 0 -4 -3 -18 -8 -31 -11 -28 2 -47
32 -47 12 0 17 -6 15 -17 -2 -13 -15 -19 -43 -21 -42 -4 -65 -17 -65 -37 0 -8
9 -10 25 -7 19 3 25 0 25 -13 0 -14 5 -16 23 -10 65 23 149 -2 91 -26 -16 -7
-36 -18 -44 -25 -31 -24 -58 -26 -65 -4 -8 25 -21 26 -35 0 -8 -15 -8 -18 3
-15 22 9 6 -111 -17 -128 -20 -15 -14 -37 9 -37 7 0 15 -6 18 -12 3 -10 8 -10
21 1 23 19 46 -1 30 -27 -6 -9 -14 -15 -17 -12 -6 6 -47 -30 -47 -43 0 -5 9 1
19 14 20 24 20 24 18 2 0 -12 -5 -19 -9 -17 -4 3 -8 0 -8 -5 0 -20 52 -11 72
12 19 21 19 20 -1 -9 -11 -17 -18 -34 -14 -37 3 -4 1 -12 -4 -19 -13 -17 -24
-86 -14 -92 13 -8 29 8 32 34 2 14 11 25 19 25 8 0 19 5 23 10 4 6 5 -2 2 -16
-4 -17 -1 -30 9 -38 12 -10 13 -18 5 -32 -6 -13 -6 -19 1 -19 18 0 11 -26 -14
-49 -18 -17 -24 -31 -21 -52 3 -21 -5 -40 -28 -68 -18 -22 -43 -55 -57 -75
-15 -20 -40 -39 -62 -47 -21 -6 -35 -17 -31 -22 3 -6 1 -7 -5 -3 -11 6 -43 0
-142 -29 -30 -8 -97 -24 -148 -35 -63 -13 -109 -29 -141 -49 -26 -17 -56 -31
-67 -31 -22 1 -158 -41 -252 -76 -34 -13 -76 -24 -92 -24 -16 0 -46 -9 -67
-20 -50 -25 -135 -30 -248 -14 -49 8 -128 18 -175 23 -111 12 -263 50 -375 94
-50 20 -110 41 -135 48 -25 7 -54 19 -65 26 -22 13 -267 13 -370 -1 l-50 -7
-32 48 c-44 68 -62 115 -79 213 -16 88 -14 207 5 277 6 21 18 72 27 113 21 93
63 187 97 219 24 21 29 23 57 11 16 -7 30 -16 30 -21 0 -4 10 -11 23 -15 12
-3 29 -13 38 -20 18 -16 45 -10 53 12 3 8 17 14 31 14 21 0 25 -4 21 -18 -4
-10 1 -27 9 -38 8 -10 15 -29 15 -41 0 -12 9 -27 20 -33 17 -9 20 -21 20 -70
0 -32 4 -62 10 -65 5 -3 21 5 34 19 25 28 46 34 46 14 0 -6 10 -22 23 -36 12
-13 22 -37 23 -55 3 -108 3 -107 25 -107 12 0 28 8 35 18 13 16 16 15 38 -10
28 -32 36 -34 36 -13 0 21 28 19 32 -2 2 -14 9 -8 27 20 22 36 24 37 45 23 27
-17 38 -11 60 32 19 37 36 41 55 10 l13 -21 18 23 c16 21 20 22 34 11 22 -19
103 -21 117 -4 6 7 21 13 33 13 47 0 64 11 71 46 7 41 21 43 60 7 16 -16 38
-33 49 -38 12 -6 26 -20 32 -33 6 -12 19 -30 28 -41 16 -18 19 -18 58 -3 47
18 78 62 78 108 0 34 -13 50 -45 56 -11 2 -20 10 -20 18 0 11 9 14 32 12 l32
-3 -29 31 c-17 18 -30 38 -30 46 0 16 21 19 36 4 5 -5 19 -7 30 -4 21 6 21 6
2 45 -10 22 -16 43 -14 48 3 5 -2 11 -13 14 -12 3 -18 14 -18 33 -1 23 10 38
52 72 29 23 62 42 74 42 25 0 27 13 4 35 -15 16 -15 19 1 45 10 18 13 31 6 35
-15 9 -12 51 5 65 20 17 19 37 -2 49 -15 8 -16 13 -6 30 12 19 10 21 -15 27
-15 4 -30 11 -33 17 -4 5 -43 11 -88 13 -92 4 -104 8 -96 33 9 28 -35 45 -94
37 -40 -5 -51 -4 -51 7 0 8 10 19 23 25 l22 11 -24 0 c-47 2 -101 24 -101 41
0 14 -8 16 -50 12 -27 -2 -62 0 -77 6 -16 5 -37 13 -48 18 -11 4 -28 6 -37 5
-12 -2 -18 5 -18 19 0 18 -4 21 -22 17 -71 -18 -108 -19 -108 -5 0 10 14 18
39 22 42 6 81 44 81 77 0 26 -17 24 -36 -6 -15 -24 -43 -33 -57 -19 -8 8 97
105 132 121 14 7 51 12 81 11 59 -2 100 7 100 23 0 13 -221 11 -245 -3z m-539
-783 c4 -8 -6 -31 -20 -50 -20 -26 -34 -34 -54 -33 -30 2 -62 24 -62 44 0 15
43 29 59 20 6 -4 18 2 28 14 21 24 41 26 49 5z m4567 -479 c33 -25 15 -46 -27
-30 -19 7 -22 44 -3 44 6 0 20 -7 30 -14z m-1129 -1198 c-7 -71 -70 -112 -126
-82 -15 9 -18 14 -8 15 8 0 4 4 -10 8 -15 4 -24 14 -24 24 1 9 -2 15 -6 12 -5
-3 -11 -1 -15 5 -3 5 -1 10 6 10 7 0 28 12 47 27 19 14 51 34 71 43 34 17 36
17 52 -1 12 -14 16 -32 13 -61z m-77 -127 c9 -4 -22 -61 -33 -61 -14 0 -20 50
-8 62 4 5 28 4 41 -1z m-1112 -1597 c1 -16 5 -40 9 -54 5 -14 9 -38 8 -54 0
-16 5 -41 13 -56 8 -15 15 -47 16 -71 1 -24 9 -55 18 -69 13 -22 15 -75 16
-390 l0 -365 -34 -52 c-19 -29 -40 -53 -46 -53 -7 0 -15 -9 -18 -21 -6 -22
-34 -21 -29 1 5 24 -9 70 -23 70 -7 0 -19 7 -26 16 -11 14 -10 19 8 34 18 14
20 22 13 54 -9 40 -8 39 -74 111 -62 67 -80 106 -71 159 3 22 7 58 8 79 1 20
5 37 10 37 4 0 5 11 1 25 -3 14 -2 25 3 25 6 0 16 39 23 88 7 48 20 103 28
122 8 19 16 44 17 55 1 11 12 42 24 70 12 27 26 76 30 110 5 33 14 72 20 88 6
15 16 39 21 53 13 33 35 26 35 -12z"/>
</g>
</svg>
